<svg width="100" height="100" viewBox="0 0 100 100" fill="none" xmlns="http://www.w3.org/2000/svg">
<circle cx="50" cy="50" r="47.5" fill="#745CFC" stroke="#745CFC" stroke-width="5"/>
<path d="M28.7793 55.208H36.0791C35.9326 57.6006 35.2734 59.7246 34.1016 61.5801C32.946 63.4355 31.3265 64.8841 29.2432 65.9258C27.1761 66.9674 24.6859 67.4883 21.7725 67.4883C19.4938 67.4883 17.4512 67.0977 15.6445 66.3164C13.8379 65.5189 12.2917 64.3796 11.0059 62.8984C9.73633 61.4173 8.7679 59.627 8.10059 57.5273C7.43327 55.4277 7.09961 53.0758 7.09961 50.4717V48.0059C7.09961 45.4017 7.44141 43.0498 8.125 40.9502C8.82487 38.8343 9.81771 37.0358 11.1035 35.5547C12.4056 34.0736 13.96 32.9342 15.7666 32.1367C17.5732 31.3392 19.5915 30.9404 21.8213 30.9404C24.7835 30.9404 27.2819 31.4775 29.3164 32.5518C31.3672 33.626 32.9541 35.1071 34.0771 36.9951C35.2165 38.8831 35.9001 41.0316 36.1279 43.4404H28.8037C28.7223 42.0081 28.4375 40.7956 27.9492 39.8027C27.4609 38.7936 26.7204 38.0368 25.7275 37.5322C24.751 37.0114 23.4489 36.751 21.8213 36.751C20.6006 36.751 19.5345 36.9788 18.623 37.4346C17.7116 37.8903 16.9466 38.582 16.3281 39.5098C15.7096 40.4375 15.2458 41.6094 14.9365 43.0254C14.6436 44.4251 14.4971 46.069 14.4971 47.957V50.4717C14.4971 52.3109 14.6354 53.9303 14.9121 55.3301C15.1888 56.7135 15.612 57.8854 16.1816 58.8457C16.7676 59.7897 17.5163 60.5059 18.4277 60.9941C19.3555 61.4661 20.4704 61.7021 21.7725 61.7021C23.3024 61.7021 24.5638 61.458 25.5566 60.9697C26.5495 60.4814 27.3063 59.7572 27.8271 58.7969C28.3643 57.8366 28.6816 56.6403 28.7793 55.208ZM63.7402 61.2871V67H45.8447V61.2871H63.7402ZM48.2129 31.4531V67H40.8887V31.4531H48.2129ZM86.9336 55.208H94.2334C94.0869 57.6006 93.4277 59.7246 92.2559 61.5801C91.1003 63.4355 89.4808 64.8841 87.3975 65.9258C85.3304 66.9674 82.8402 67.4883 79.9268 67.4883C77.6481 67.4883 75.6055 67.0977 73.7988 66.3164C71.9922 65.5189 70.446 64.3796 69.1602 62.8984C67.8906 61.4173 66.9222 59.627 66.2549 57.5273C65.5876 55.4277 65.2539 53.0758 65.2539 50.4717V48.0059C65.2539 45.4017 65.5957 43.0498 66.2793 40.9502C66.9792 38.8343 67.972 37.0358 69.2578 35.5547C70.5599 34.0736 72.1143 32.9342 73.9209 32.1367C75.7275 31.3392 77.7458 30.9404 79.9756 30.9404C82.9378 30.9404 85.4362 31.4775 87.4707 32.5518C89.5215 33.626 91.1084 35.1071 92.2314 36.9951C93.3708 38.8831 94.0544 41.0316 94.2822 43.4404H86.958C86.8766 42.0081 86.5918 40.7956 86.1035 39.8027C85.6152 38.7936 84.8747 38.0368 83.8818 37.5322C82.9053 37.0114 81.6032 36.751 79.9756 36.751C78.7549 36.751 77.6888 36.9788 76.7773 37.4346C75.8659 37.8903 75.1009 38.582 74.4824 39.5098C73.8639 40.4375 73.4001 41.6094 73.0908 43.0254C72.7979 44.4251 72.6514 46.069 72.6514 47.957V50.4717C72.6514 52.3109 72.7897 53.9303 73.0664 55.3301C73.3431 56.7135 73.7663 57.8854 74.3359 58.8457C74.9219 59.7897 75.6706 60.5059 76.582 60.9941C77.5098 61.4661 78.6247 61.7021 79.9268 61.7021C81.4567 61.7021 82.7181 61.458 83.7109 60.9697C84.7038 60.4814 85.4606 59.7572 85.9814 58.7969C86.5186 57.8366 86.8359 56.6403 86.9336 55.208Z" fill="white"/>
</svg>
