<svg width="100" height="100" viewBox="0 0 100 100" fill="none" xmlns="http://www.w3.org/2000/svg">
<circle cx="50" cy="50" r="47.5" fill="#EB8D00" stroke="#EB8D00" stroke-width="5"/>
<path d="M34.627 37.5322L24.959 67H17.1709L30.3789 31.4531H35.335L34.627 37.5322ZM42.6592 67L32.9668 37.5322L32.1855 31.4531H37.1904L50.4717 67H42.6592ZM42.2197 53.7676V59.5049H23.4453V53.7676H42.2197ZM73.9336 55.208H81.2334C81.0869 57.6006 80.4277 59.7246 79.2559 61.5801C78.1003 63.4355 76.4808 64.8841 74.3975 65.9258C72.3304 66.9674 69.8402 67.4883 66.9268 67.4883C64.6481 67.4883 62.6055 67.0977 60.7988 66.3164C58.9922 65.5189 57.446 64.3796 56.1602 62.8984C54.8906 61.4173 53.9222 59.627 53.2549 57.5273C52.5876 55.4277 52.2539 53.0758 52.2539 50.4717V48.0059C52.2539 45.4017 52.5957 43.0498 53.2793 40.9502C53.9792 38.8343 54.972 37.0358 56.2578 35.5547C57.5599 34.0736 59.1143 32.9342 60.9209 32.1367C62.7275 31.3392 64.7458 30.9404 66.9756 30.9404C69.9378 30.9404 72.4362 31.4775 74.4707 32.5518C76.5215 33.626 78.1084 35.1071 79.2314 36.9951C80.3708 38.8831 81.0544 41.0316 81.2822 43.4404H73.958C73.8766 42.0081 73.5918 40.7956 73.1035 39.8027C72.6152 38.7936 71.8747 38.0368 70.8818 37.5322C69.9053 37.0114 68.6032 36.751 66.9756 36.751C65.7549 36.751 64.6888 36.9788 63.7773 37.4346C62.8659 37.8903 62.1009 38.582 61.4824 39.5098C60.8639 40.4375 60.4001 41.6094 60.0908 43.0254C59.7979 44.4251 59.6514 46.069 59.6514 47.957V50.4717C59.6514 52.3109 59.7897 53.9303 60.0664 55.3301C60.3431 56.7135 60.7663 57.8854 61.3359 58.8457C61.9219 59.7897 62.6706 60.5059 63.582 60.9941C64.5098 61.4661 65.6247 61.7021 66.9268 61.7021C68.4567 61.7021 69.7181 61.458 70.7109 60.9697C71.7038 60.4814 72.4606 59.7572 72.9814 58.7969C73.5186 57.8366 73.8359 56.6403 73.9336 55.208Z" fill="white"/>
</svg>
